<?xml version="1.0" standalone="no"?>
<!DOCTYPE svg PUBLIC "-//W3C//DTD SVG 20010904//EN"
 "http://www.w3.org/TR/2001/REC-SVG-20010904/DTD/svg10.dtd">
<svg version="1.0" xmlns="http://www.w3.org/2000/svg"
 width="512.000000pt" height="512.000000pt" viewBox="0 0 512.000000 512.000000"
 preserveAspectRatio="xMidYMid meet">
<metadata>
Created by potrace 1.16, written by Peter Selinger 2001-2019
</metadata>
<g transform="translate(0.000000,512.000000) scale(0.100000,-0.100000)"
fill="#000000" stroke="none">
<path d="M0 2560 l0 -2560 130 0 130 0 0 2560 0 2560 -130 0 -130 0 0 -2560z"/>
<path d="M4850 2560 l0 -2560 135 0 135 0 0 2560 0 2560 -135 0 -135 0 0
-2560z"/>
<path d="M1490 4419 c-14 -6 -36 -20 -48 -32 -48 -45 -52 -64 -52 -270 0 -193
0 -194 25 -217 16 -15 41 -24 75 -28 l51 -5 -3 -106 -3 -106 -166 -85 c-227
-116 -293 -171 -350 -285 -60 -122 -59 -98 -59 -1267 l0 -1068 675 0 675 0 0
604 0 605 -29 21 c-17 11 -42 45 -57 75 -50 104 -30 229 50 307 l36 35 0 121
0 122 -582 2 -583 3 -3 120 c-6 244 43 314 308 449 213 108 236 122 250 156 7
18 13 84 14 162 l1 133 298 5 298 5 1 230 c0 127 0 251 -1 278 l-1 47 -397 -1
c-240 0 -408 -4 -423 -10z"/>
<path d="M2432 4308 l3 -123 85 -7 c466 -41 885 -269 1189 -648 337 -421 459
-1018 311 -1527 -128 -436 -431 -793 -855 -1003 -218 -108 -407 -160 -632
-176 l-103 -7 0 -117 c0 -64 2 -119 4 -121 10 -10 242 11 342 31 630 126 1158
551 1400 1124 99 233 135 404 141 671 9 340 -47 600 -192 903 -111 231 -235
402 -422 583 -253 244 -554 409 -894 489 -101 24 -276 50 -337 50 l-43 0 3
-122z"/>
<path d="M2548 3884 c-19 -10 -60 -69 -126 -182 -288 -489 -279 -470 -261
-534 7 -27 20 -45 42 -58 30 -19 53 -20 400 -20 315 0 372 2 398 16 37 19 63
75 55 119 -4 18 -62 126 -129 241 -68 115 -149 253 -181 306 -59 102 -89 128
-143 128 -15 -1 -40 -7 -55 -16z m93 -214 c16 -9 19 -21 19 -73 -1 -94 -17
-198 -33 -214 -21 -22 -53 -1 -61 39 -4 18 -10 76 -13 128 -5 82 -3 98 11 113
20 19 48 22 77 7z m11 -375 c8 -19 8 -31 0 -50 -22 -49 -102 -28 -102 26 0 49
82 69 102 24z"/>
<path d="M3157 3753 c-61 -97 -97 -172 -91 -187 8 -22 39 -37 58 -30 8 3 40
50 72 105 43 75 55 105 50 124 -5 20 -13 25 -36 25 -24 0 -35 -8 -53 -37z"/>
<path d="M3601 3172 c-58 -32 -107 -64 -109 -70 -2 -7 -1 -24 2 -37 11 -44 39
-40 143 20 92 53 123 77 123 97 0 10 -37 48 -47 48 -5 0 -55 -26 -112 -58z"/>
<path d="M3240 2882 c-19 -10 -178 -100 -352 -200 l-317 -183 -38 21 c-64 34
-131 21 -186 -38 -67 -70 -49 -190 36 -243 25 -15 46 -19 95 -17 l62 3 213
-213 c188 -188 216 -212 244 -212 33 0 53 21 53 56 0 9 -99 117 -220 239
l-220 221 13 43 c14 49 -30 20 434 286 131 75 246 144 256 152 24 23 22 68 -5
87 -28 20 -26 20 -68 -2z"/>
<path d="M3627 2482 c-21 -23 -22 -56 -1 -76 13 -13 42 -16 158 -16 126 0 145
2 159 18 21 23 21 41 1 70 -14 21 -22 22 -158 22 -126 0 -145 -2 -159 -18z"/>
<path d="M3488 1825 c-15 -33 -5 -43 108 -111 94 -56 119 -62 137 -33 22 35 0
63 -96 117 -105 59 -132 64 -149 27z"/>
<path d="M3042 1384 c-32 -22 -27 -46 31 -150 54 -97 81 -120 112 -94 24 20
18 46 -36 146 -56 105 -74 121 -107 98z"/>
<path d="M2430 1271 c-13 -26 -13 -276 0 -302 12 -21 50 -25 68 -7 8 8 12 58
12 158 0 100 -4 150 -12 158 -18 18 -56 14 -68 -7z"/>
<path d="M976 831 c-3 -5 2 -30 11 -57 23 -69 111 -155 180 -178 64 -21 82
-22 673 -18 l475 2 0 128 0 127 -667 3 c-377 1 -669 -2 -672 -7z"/>
</g>
</svg>
